<?xml version="1.0" standalone="no"?>
<!DOCTYPE svg PUBLIC "-//W3C//DTD SVG 20010904//EN"
 "http://www.w3.org/TR/2001/REC-SVG-20010904/DTD/svg10.dtd">
<svg version="1.0" xmlns="http://www.w3.org/2000/svg"
 width="803.000000pt" height="760.000000pt" viewBox="0 0 803.000000 760.000000"
 preserveAspectRatio="xMidYMid meet">
<metadata>
Created by potrace 1.16, written by Peter Selinger 2001-2019
</metadata>
<g transform="translate(0.000000,760.000000) scale(0.100000,-0.100000)"
fill="#000000" stroke="none">
<path d="M3933 7065 c-13 -10 -4 -13 53 -19 281 -27 624 -115 903 -232 57 -24
106 -42 108 -40 5 5 -149 71 -261 111 -130 47 -299 94 -456 126 -150 31 -135
37 29 13 648 -94 1279 -406 1759 -868 378 -365 662 -815 826 -1311 45 -138
116 -419 116 -462 0 -13 5 -23 10 -23 15 0 13 18 -15 148 -191 883 -730 1639
-1504 2106 -399 242 -884 404 -1331 445 -199 18 -219 19 -237 6z"/>
<path d="M3050 6985 c-25 -6 -55 -17 -68 -24 -18 -10 -23 -9 -28 4 -8 19 -33
20 -40 1 -5 -13 -33 -22 -132 -42 -13 -2 -21 -8 -18 -13 3 -4 -45 -27 -107
-51 -158 -61 -360 -158 -353 -169 4 -5 65 19 139 54 72 36 178 82 235 103 57
22 102 43 100 47 -3 9 121 47 132 40 7 -4 188 40 196 48 12 12 -15 13 -56 2z"/>
<path d="M1367 6827 l6 -77 -54 25 c-30 13 -61 25 -69 25 -8 1 -24 20 -35 42
-11 23 -26 43 -34 46 -8 3 -6 -8 7 -34 l20 -39 -82 4 c-56 2 -83 8 -89 17 -11
20 -28 17 -25 -3 2 -14 -3 -17 -22 -15 -47 7 -13 -8 76 -34 49 -14 98 -31 108
-36 18 -10 18 -12 -10 -26 -16 -8 -56 -19 -89 -23 l-60 -8 60 3 c33 1 75 10
94 19 44 22 43 22 112 -9 54 -25 57 -27 47 -50 -7 -14 -28 -29 -52 -38 -70
-25 -72 -26 -33 -20 21 3 45 8 53 11 13 5 15 -5 12 -58 l-3 -64 -50 -6 -50 -6
53 -1 c69 -2 59 -22 -11 -23 l-52 -1 30 -13 c17 -8 40 -14 52 -15 26 0 105 86
99 109 -24 86 -12 141 41 196 21 21 62 49 91 62 29 14 51 30 49 36 -5 16 -86
59 -97 52 -6 -3 -10 -13 -10 -22 0 -9 -12 -37 -27 -62 l-28 -46 -6 55 c-4 30
-11 66 -17 80 -8 19 -9 7 -5 -53z"/>
<path d="M2360 6663 c-21 -5 -16 -211 7 -268 57 -144 68 -164 91 -165 26 0 83
22 115 45 l22 17 -22 -7 c-13 -3 -28 -3 -35 2 -7 4 -29 13 -48 18 -25 8 -41
22 -56 50 -39 71 -39 80 1 103 19 12 35 17 35 12 0 -16 83 -59 128 -66 59 -9
52 2 -13 20 -30 9 -66 27 -81 39 l-27 23 52 22 c52 21 52 21 84 2 18 -11 43
-20 57 -19 20 0 15 5 -25 23 l-50 23 75 26 c57 21 65 26 35 21 -22 -3 -49 -8
-60 -11 -18 -5 -19 -4 -5 13 14 18 14 18 -6 2 -14 -13 -227 -126 -240 -128 0
0 0 42 0 94 1 95 -6 116 -34 109z"/>
<path d="M1380 6484 c0 -6 10 -26 23 -45 18 -27 30 -35 60 -37 40 -3 46 -12
22 -32 -20 -17 -19 -82 4 -147 17 -51 17 -53 -1 -71 -25 -24 -41 -96 -33 -144
4 -21 4 -38 2 -38 -3 0 -26 9 -52 20 -32 14 -52 17 -63 11 -13 -7 -7 -14 31
-32 38 -18 47 -28 47 -48 0 -15 3 -36 6 -49 l6 -22 -48 24 c-44 21 -124 43
-124 33 0 -2 31 -16 70 -31 38 -15 72 -31 75 -35 2 -5 -25 -31 -60 -59 -58
-47 -69 -52 -117 -53 -51 -1 -52 -2 -15 -9 20 -4 39 -9 42 -11 2 -3 -6 -21
-19 -40 -13 -18 -36 -53 -50 -76 -18 -30 -33 -43 -49 -43 l-22 -1 22 -12 c21
-12 22 -14 7 -35 -8 -12 -11 -22 -7 -22 5 0 13 8 19 18 6 10 49 51 94 92 l83
75 -6 -56 c-3 -31 -15 -76 -27 -100 -14 -27 -16 -38 -7 -29 21 21 47 103 47
150 0 37 4 43 61 85 59 43 63 45 80 29 11 -10 19 -27 19 -38 0 -47 -32 -143
-62 -186 -21 -30 -24 -39 -10 -26 32 28 71 113 78 168 6 44 8 47 23 35 9 -8
35 -24 58 -36 23 -11 44 -25 47 -30 3 -4 -5 -29 -18 -54 -12 -26 -19 -44 -14
-41 4 3 17 23 28 45 24 45 30 48 30 15 0 -14 -16 -46 -36 -72 -34 -45 -35 -46
-7 -26 46 33 71 65 88 111 22 64 20 71 -20 71 -40 0 -116 35 -163 75 -53 44
-67 136 -53 337 0 9 12 30 26 46 24 29 24 31 10 66 -22 53 -20 137 5 169 l20
26 -55 16 c-43 12 -60 23 -75 48 -11 18 -20 27 -20 21z"/>
<path d="M1120 6190 c-14 -4 -20 -8 -14 -9 6 -1 30 -18 53 -38 43 -36 43 -37
20 -46 -13 -5 -53 -13 -89 -17 l-65 -8 76 1 77 2 -82 -54 c-108 -72 -222 -188
-274 -279 -23 -41 -42 -79 -42 -85 0 -7 13 12 29 40 81 146 218 280 360 353
l44 22 -31 -38 c-45 -54 -40 -67 5 -15 41 48 47 45 62 -32 l9 -42 1 39 c1 28
9 49 29 70 25 29 25 30 1 8 -14 -12 -29 -19 -32 -15 -16 15 -5 43 21 57 31 18
25 20 -13 6 -24 -9 -33 -6 -77 31 -36 31 -46 44 -36 50 16 10 2 10 -32 -1z"/>
<path d="M1057 5793 c-24 -32 -72 -100 -107 -150 l-62 -93 -46 40 c-25 22 -56
43 -69 46 -13 4 -23 10 -23 14 0 4 -11 10 -25 12 -13 3 -22 1 -19 -3 3 -5 12
-9 20 -9 17 0 18 -12 2 -28 -7 -7 -8 -12 -2 -12 5 0 15 5 22 12 16 16 15 6 -3
-39 -34 -87 -55 -197 -55 -294 0 -97 -10 -147 -33 -161 -9 -6 -9 -8 1 -8 9 0
9 -8 -2 -35 -19 -44 -14 -45 13 -2 l21 32 0 -181 0 -180 -27 -12 c-22 -9 -23
-11 -5 -8 25 5 29 -11 11 -47 -10 -21 -10 -21 5 -3 21 26 20 14 -5 -97 -27
-123 -49 -238 -49 -259 0 -10 7 -18 15 -18 13 0 11 -8 -7 -42 -64 -122 -65
-587 -2 -968 31 -186 78 -373 134 -535 388 -1107 1324 -1909 2485 -2130 151
-29 123 -31 -60 -4 -557 81 -1035 280 -1491 618 -60 45 -91 64 -68 44 97 -89
326 -239 518 -339 303 -158 613 -262 950 -319 163 -28 432 -53 443 -41 13 13
-17 23 -86 30 -167 15 -418 69 -612 132 -1047 336 -1865 1203 -2139 2267 -70
274 -101 535 -100 840 1 144 6 223 15 254 7 24 11 59 8 78 -3 18 0 41 6 51 10
18 10 18 12 -1 1 -13 4 -10 8 10 4 17 12 29 19 28 8 -2 10 11 5 45 -7 54 -13
68 -13 29 0 -14 -4 -29 -10 -32 -14 -9 -13 17 7 114 12 61 19 79 24 65 5 -12
8 2 8 39 1 66 19 149 31 142 5 -3 6 3 3 13 -2 10 11 67 31 127 19 60 32 113
29 118 -3 5 -19 -33 -35 -84 -17 -52 -33 -97 -37 -102 -4 -4 -7 63 -8 149 -1
135 1 153 13 137 13 -16 13 -15 4 10 -5 16 -10 37 -10 48 0 19 1 19 43 -2 23
-12 52 -31 65 -42 13 -12 22 -15 22 -8 0 7 27 70 59 142 33 71 55 129 50 129
-10 0 -53 -83 -94 -180 -15 -36 -28 -66 -30 -68 -1 -2 -20 9 -41 23 -20 14
-48 28 -61 31 -37 10 -28 48 42 183 36 69 63 126 61 128 -2 2 -31 -49 -65
-114 l-60 -118 0 85 c-1 83 14 167 45 263 16 50 29 52 37 7 3 -18 5 -15 6 13
0 20 6 37 12 37 7 0 31 -20 55 -44 25 -24 44 -37 44 -29 0 14 102 168 176 266
20 26 33 47 31 47 -3 0 -26 -26 -50 -57z"/>
<path d="M2755 5636 c-48 -22 -58 -50 -65 -177 -3 -73 -10 -123 -19 -132 -19
-24 -47 -30 -73 -16 l-23 13 25 6 c31 7 37 35 14 61 -23 26 -50 24 -79 -6 -71
-70 24 -191 119 -151 l36 15 0 -595 0 -594 910 0 c577 0 910 4 910 10 0 5 -26
27 -58 48 -85 58 -87 65 -87 273 0 166 1 179 21 206 l22 29 -94 47 c-105 52
-130 56 -167 27 -40 -32 -47 -77 -47 -307 l0 -213 -80 0 -80 0 0 199 c0 181 2
200 19 223 l19 24 -94 47 c-105 52 -130 56 -167 27 -40 -32 -47 -77 -47 -307
l0 -213 -90 0 -90 0 0 184 c0 182 7 230 35 252 12 9 -7 21 -88 58 -107 48
-126 53 -158 36 -44 -24 -49 -55 -49 -300 l0 -230 -140 0 -140 0 0 633 c0 349
5 650 10 672 5 22 17 45 26 52 15 11 3 19 -90 63 -60 27 -109 50 -110 50 0 -1
-14 -7 -31 -14z m136 -47 l86 -41 -19 -36 c-17 -34 -18 -74 -18 -694 l0 -658
150 0 150 0 0 230 c0 252 7 290 54 312 23 10 37 6 108 -26 116 -51 111 -47 93
-82 -12 -23 -15 -70 -15 -232 l0 -203 103 3 102 3 5 245 c3 135 9 252 13 262
5 9 22 22 38 28 26 11 38 8 123 -31 l94 -43 -16 -25 c-14 -21 -17 -56 -17
-231 l0 -205 92 -3 91 -3 4 238 c4 260 8 282 60 304 26 10 38 7 122 -32 l93
-44 -16 -24 c-13 -20 -17 -59 -19 -194 -2 -93 -1 -179 2 -192 9 -34 53 -83
105 -116 l46 -29 -902 0 -903 0 0 601 0 600 -22 -15 c-56 -39 -141 -5 -154 61
-8 43 32 87 68 74 13 -4 24 -18 26 -31 3 -16 0 -21 -11 -17 -20 8 -41 -8 -34
-27 8 -21 53 -31 83 -17 34 15 44 49 44 144 0 98 13 151 43 172 32 23 53 19
148 -26z"/>
<path d="M3708 5322 c-30 -18 -58 -67 -58 -102 0 -29 26 -76 52 -94 13 -9 43
-16 71 -16 40 0 54 5 77 29 53 53 52 111 -5 168 -26 26 -41 33 -71 33 -22 0
-51 -8 -66 -18z m105 -3 c39 -20 57 -51 57 -101 0 -40 -4 -50 -31 -72 -58 -49
-156 -21 -173 50 -21 83 73 161 147 123z"/>
<path d="M1620 5169 c-137 -14 -222 -76 -258 -189 -6 -19 -16 -78 -22 -130
-12 -96 -31 -150 -86 -237 l-26 -43 419 0 c414 0 419 0 463 -22 69 -35 91 -82
88 -185 -4 -96 -20 -126 -88 -160 -44 -23 -45 -23 -556 -23 l-512 0 -31 26
c-34 29 -39 58 -15 92 17 24 53 29 72 10 17 -17 15 -57 -3 -64 -24 -10 -17
-33 11 -40 66 -17 118 44 111 129 -8 86 -69 140 -162 140 -67 0 -118 -30 -147
-86 -18 -36 -19 -50 -12 -107 10 -87 11 -181 0 -202 -8 -17 28 -18 671 -18
761 0 741 -2 814 71 46 46 69 116 69 208 0 202 -105 318 -310 341 -47 5 -206
10 -353 10 l-268 0 6 38 c22 127 49 242 64 277 39 89 129 125 215 87 47 -21
74 -58 63 -86 -4 -9 -16 -16 -27 -16 -27 0 -38 29 -16 42 21 12 11 28 -18 28
-60 0 -78 -61 -31 -110 45 -47 118 -45 165 5 23 24 24 35 19 127 -1 27 3 54
11 62 10 13 10 17 -1 20 -25 8 -253 11 -319 5z m299 -43 c-5 -16 -6 -55 -2
-87 5 -54 4 -59 -22 -83 -57 -53 -165 -21 -165 48 0 24 24 46 51 46 9 0 9 -3
-1 -15 -6 -8 -9 -23 -5 -35 5 -17 13 -20 38 -18 26 2 33 8 35 30 5 40 -14 67
-61 89 -53 23 -101 24 -152 0 -74 -34 -93 -70 -130 -258 -15 -70 -29 -138 -32
-150 l-5 -22 354 -3 c405 -4 417 -6 498 -88 110 -109 121 -342 21 -441 -69
-70 -63 -69 -803 -69 -362 0 -658 2 -658 4 0 1 5 17 11 34 8 24 7 50 -6 112
-19 92 -14 146 17 185 66 85 211 71 261 -25 43 -83 -18 -193 -90 -165 -17 6
-17 7 0 16 20 12 23 69 5 87 -21 21 -75 15 -92 -10 -34 -48 -15 -100 47 -129
39 -17 72 -19 509 -19 296 0 485 4 517 11 106 23 156 87 155 200 0 94 -32 154
-99 189 l-49 25 -403 3 c-222 2 -403 5 -403 8 0 2 12 23 26 46 42 66 53 99 64
199 23 193 68 261 205 305 28 10 91 13 206 11 l166 -2 -8 -29z"/>
<path d="M3585 5080 c-44 -18 -70 -59 -70 -111 0 -41 5 -53 32 -80 59 -59 157
-39 189 38 39 91 -60 191 -151 153z m79 -14 c105 -44 79 -196 -34 -196 -53 0
-87 23 -101 70 -20 66 21 124 99 139 1 1 18 -5 36 -13z"/>
<path d="M3883 5078 c-97 -25 -111 -167 -21 -214 78 -40 168 14 168 101 0 81
-68 133 -147 113z m88 -18 c25 -14 49 -62 49 -99 0 -42 -45 -90 -90 -97 -81
-13 -145 79 -106 151 10 18 28 38 39 43 29 14 83 15 108 2z"/>
<path d="M607 5002 c-10 -10 -14 -21 -11 -25 3 -3 -12 -61 -35 -129 -260 -786
-206 -1664 149 -2405 65 -136 205 -383 216 -383 3 0 -4 16 -17 36 -164 266
-294 556 -375 837 -181 627 -164 1337 46 1942 38 108 50 145 46 145 -2 0 -10
-8 -19 -18z"/>
<path d="M4840 4756 c-62 -16 -113 -49 -150 -96 -151 -190 -111 -520 74 -609
84 -41 208 -47 290 -15 18 7 19 3 12 -57 -11 -97 -36 -177 -66 -210 -24 -25
-35 -29 -79 -29 -63 0 -91 23 -91 75 0 26 6 39 26 51 24 16 26 16 54 -5 38
-27 40 -27 40 8 0 40 -40 71 -92 71 -50 0 -71 -12 -97 -54 -44 -71 -18 -175
56 -226 33 -22 47 -25 132 -25 85 0 103 3 154 28 114 57 209 185 222 302 13
113 14 116 35 105 27 -15 833 -14 828 1 -2 6 -28 27 -58 47 -86 58 -91 75 -88
279 3 158 5 174 25 201 l22 29 -97 47 c-106 50 -126 54 -161 30 -45 -32 -51
-67 -51 -304 l0 -220 -204 0 c-177 0 -205 2 -217 17 -11 12 -15 62 -17 196 -3
168 -2 182 17 208 l20 27 -97 47 c-79 38 -104 46 -133 41 -23 -4 -42 0 -56 9
-28 19 -128 45 -173 44 -19 0 -55 -6 -80 -13z m240 -37 c36 -21 50 -24 67 -16
18 8 40 2 117 -33 l95 -43 -17 -31 c-14 -26 -17 -59 -17 -191 0 -175 9 -214
51 -234 16 -7 96 -11 219 -11 l194 0 3 238 c4 259 8 281 60 303 27 11 38 8
121 -32 l92 -44 -17 -35 c-15 -29 -18 -63 -18 -203 0 -204 5 -219 92 -277 l60
-40 -405 0 c-394 0 -405 1 -431 21 l-26 20 0 -63 c0 -170 -86 -310 -230 -376
-69 -33 -205 -37 -257 -9 -119 64 -103 267 22 267 35 0 85 -33 85 -56 0 -13
-3 -13 -22 0 -32 23 -55 20 -85 -10 -71 -71 54 -182 145 -128 17 9 40 34 52
55 25 45 50 154 50 221 l0 47 -46 -16 c-32 -11 -70 -14 -132 -11 -102 5 -149
25 -206 88 -58 65 -78 120 -83 235 -4 85 -2 110 17 165 35 104 87 169 165 207
44 21 61 24 145 21 81 -3 102 -7 140 -29z"/>
<path d="M4844 4641 c-48 -29 -79 -102 -79 -186 0 -79 17 -122 56 -144 35 -19
77 -8 85 23 7 29 -3 66 -18 66 -7 0 -6 -5 2 -14 20 -25 8 -60 -24 -71 -25 -8
-31 -6 -56 21 -59 67 -45 222 28 287 31 28 98 34 138 12 96 -51 129 -320 53
-427 -42 -58 -142 -61 -204 -6 -39 33 -48 58 -13 34 28 -20 100 -21 138 -1 69
36 79 99 24 151 -28 27 -44 34 -75 34 -21 0 -39 -4 -39 -9 0 -6 16 -7 35 -4
30 5 39 1 70 -30 38 -38 43 -61 19 -95 -38 -55 -119 -67 -177 -27 -20 13 -39
20 -42 16 -8 -14 52 -89 84 -106 44 -22 112 -19 151 8 58 38 74 79 78 193 5
131 -14 202 -68 256 -33 34 -43 38 -86 38 -30 0 -61 -7 -80 -19z"/>
<path d="M5586 3935 c-58 -53 -58 -124 0 -174 115 -101 264 66 152 171 -41 38
-112 40 -152 3z m137 -5 c38 -30 52 -80 33 -123 -15 -37 -59 -67 -96 -67 -29
0 -77 27 -90 49 -5 11 -10 38 -10 61 0 84 97 132 163 80z"/>
<path d="M5854 3926 c-79 -79 -17 -204 96 -193 62 7 100 49 100 113 0 39 -5
51 -34 80 -29 29 -41 34 -81 34 -40 0 -52 -5 -81 -34z m135 10 c57 -30 68
-107 22 -158 -25 -28 -36 -33 -75 -33 -58 0 -95 33 -103 93 -5 37 -2 45 30 77
39 39 78 45 126 21z"/>
<path d="M5755 3720 c-44 -18 -70 -59 -70 -110 0 -140 200 -158 230 -21 18 84
-80 165 -160 131z m118 -40 c40 -45 39 -108 -4 -144 -88 -74 -209 13 -165 118
29 70 116 83 169 26z"/>
<path d="M2027 3519 c-42 -24 -47 -64 -47 -356 0 -384 -17 -516 -73 -579 -26
-31 -34 -34 -82 -34 -46 0 -57 4 -74 26 -29 37 -27 79 4 100 23 15 27 15 59
-4 27 -16 36 -17 40 -7 9 24 -6 56 -35 70 -103 54 -205 -48 -169 -168 50 -167
326 -170 476 -4 52 58 93 138 101 198 3 21 9 39 13 39 4 0 28 -9 53 -20 96
-42 232 -35 331 18 26 15 72 53 101 85 49 54 54 57 64 39 6 -11 26 -27 45 -36
30 -14 85 -16 434 -16 233 0 403 4 407 9 3 5 -21 27 -52 48 -89 59 -94 75 -91
280 3 158 5 174 25 201 l22 30 -98 46 c-108 51 -125 54 -160 30 -45 -32 -51
-67 -51 -304 l0 -220 -206 2 -207 3 -19 25 c-12 17 -21 53 -27 117 -10 114
-41 181 -111 247 -102 96 -251 130 -394 92 l-62 -17 -78 35 c-82 38 -109 42
-139 25z m138 -38 l83 -39 58 20 c46 16 77 19 139 16 104 -6 183 -40 253 -111
67 -68 92 -128 102 -238 7 -95 24 -134 66 -149 14 -6 112 -10 219 -10 l194 0
3 243 c3 209 5 247 20 269 30 45 65 45 160 -3 45 -23 84 -42 86 -44 1 -1 -5
-18 -13 -38 -11 -28 -15 -77 -15 -203 0 -199 6 -218 88 -272 l55 -37 -384 -3
c-260 -2 -396 1 -422 8 -27 8 -45 22 -60 47 -19 33 -22 35 -31 18 -24 -43
-114 -129 -157 -150 -99 -50 -235 -53 -328 -6 -22 12 -44 21 -49 21 -5 0 -12
-20 -15 -45 -12 -115 -131 -265 -234 -299 -127 -41 -230 -29 -287 34 -46 51
-55 105 -27 163 26 53 57 72 106 64 44 -7 65 -23 65 -49 0 -18 -2 -18 -22 -4
-30 21 -54 20 -78 -4 -24 -24 -26 -76 -5 -107 34 -48 132 -54 172 -10 66 72
76 135 82 542 6 361 9 381 49 404 27 16 39 14 127 -28z"/>
<path d="M2357 3386 c-87 -32 -127 -107 -127 -237 0 -79 3 -92 36 -159 28 -56
46 -78 80 -100 82 -52 162 -48 231 13 48 42 73 99 73 167 l0 55 -21 -45 c-36
-79 -81 -112 -154 -112 -89 0 -133 61 -127 176 3 43 70 106 114 106 43 0 68
-25 68 -68 0 -35 -19 -43 -40 -17 -17 20 -33 19 -53 -3 -23 -25 -21 -45 6 -70
57 -54 162 -2 174 85 3 23 2 58 -1 78 -8 40 -55 99 -96 120 -42 22 -120 27
-163 11z m168 -29 c46 -25 85 -92 85 -144 0 -75 -50 -133 -115 -133 -33 0 -65
32 -58 59 8 29 30 33 53 9 18 -20 22 -21 36 -7 8 9 16 31 16 49 1 44 -30 70
-85 70 -34 0 -46 -6 -78 -39 -64 -69 -62 -170 6 -230 69 -61 169 -47 226 32
34 47 40 26 10 -38 -24 -54 -77 -103 -118 -111 -143 -27 -251 79 -261 255 -7
115 23 190 92 232 45 27 139 26 191 -4z"/>
<path d="M4053 3506 l-28 -24 -7 -339 c-8 -416 -21 -507 -80 -570 -29 -31
-118 -33 -148 -3 -30 30 -27 85 6 106 24 16 26 16 54 -5 38 -27 40 -27 40 8 0
41 -40 71 -94 71 -50 0 -78 -18 -100 -64 -44 -94 5 -203 108 -236 86 -27 228
2 310 65 80 61 156 197 156 280 0 18 3 46 6 63 6 28 9 30 31 21 13 -5 66 -9
116 -9 99 0 144 16 167 60 11 20 13 19 50 -32 146 -201 461 -193 605 17 65 95
80 220 39 339 -23 66 -115 163 -191 201 -49 24 -73 29 -153 33 -80 3 -104 0
-153 -18 -150 -56 -227 -178 -227 -359 0 -38 -6 -66 -20 -88 l-20 -33 -105 0
c-142 0 -137 -8 -133 228 3 159 5 182 22 200 18 21 17 21 -79 66 -54 25 -108
46 -121 46 -13 0 -36 -11 -51 -24z m154 -27 l92 -42 -16 -31 c-12 -23 -17 -69
-21 -181 -6 -230 8 -255 150 -255 134 0 156 25 168 185 9 118 34 179 100 239
72 65 119 81 240 81 96 0 110 -3 165 -29 133 -65 207 -182 207 -326 0 -178
-116 -316 -292 -350 -149 -29 -311 47 -378 176 l-20 39 -10 -25 c-5 -14 -22
-36 -37 -50 -24 -23 -36 -25 -127 -28 -90 -4 -104 -2 -129 17 -15 12 -30 21
-32 21 -3 0 -7 -39 -9 -87 -3 -56 -13 -108 -26 -143 -31 -80 -108 -162 -189
-202 -58 -28 -75 -32 -152 -33 -73 0 -92 3 -124 24 -89 55 -103 191 -25 245
48 34 137 7 138 -41 0 -8 -9 -7 -29 5 -75 43 -132 -66 -67 -127 33 -31 103
-37 143 -12 79 49 93 130 101 569 l7 354 28 24 c15 13 33 24 40 24 7 0 53 -18
104 -41z"/>
<path d="M4857 3388 c-115 -32 -167 -189 -117 -350 55 -180 227 -243 341 -126
43 44 73 124 67 180 l-3 33 -21 -45 c-59 -129 -199 -154 -264 -47 -53 86 5
217 96 217 54 0 90 -49 65 -88 -6 -10 -14 -9 -38 5 -26 14 -33 15 -47 4 -42
-35 -4 -101 57 -101 110 0 160 147 86 252 -41 57 -144 88 -222 66z m177 -42
c96 -73 86 -235 -16 -260 -43 -11 -88 12 -88 44 0 31 31 42 56 19 20 -19 23
-19 38 -4 41 42 2 115 -61 115 -79 0 -133 -61 -133 -151 0 -88 48 -146 127
-156 50 -6 119 30 152 77 l24 35 -6 -39 c-8 -49 -48 -111 -90 -136 -46 -28
-130 -27 -179 3 -78 47 -122 144 -123 267 0 91 30 162 85 198 30 20 45 23 106
20 60 -3 77 -8 108 -32z"/>
<path d="M6815 3218 c-30 -155 -40 -184 -74 -223 -20 -22 -45 -57 -56 -77 -11
-21 -22 -38 -26 -38 -4 0 -12 14 -19 30 -17 40 -26 30 -11 -11 7 -20 8 -35 2
-38 -5 -4 -20 -31 -34 -61 l-24 -55 -19 33 c-35 61 -44 71 -35 35 5 -17 14
-39 19 -49 9 -17 -10 -97 -28 -117 -4 -5 -24 14 -45 42 -20 28 -39 51 -41 51
-6 0 30 -70 49 -95 13 -17 13 -21 -2 -32 -13 -10 -8 -12 34 -12 118 1 186 -8
198 -25 12 -16 14 -16 31 3 11 12 31 21 46 21 15 0 27 6 27 13 1 6 11 38 22
69 12 32 21 68 20 80 0 13 -10 -8 -23 -47 -22 -70 -23 -70 -30 -36 -5 20 -16
35 -27 38 -18 5 -19 12 -13 112 4 58 8 117 8 131 1 14 4 27 8 30 9 7 61 250
55 256 -3 3 -8 -10 -12 -28z"/>
<path d="M3062 2754 c-26 -18 -52 -65 -52 -94 0 -36 31 -90 61 -105 69 -36
161 6 175 80 8 43 -19 101 -57 120 -37 20 -99 19 -127 -1z m139 -23 c23 -23
29 -38 29 -71 0 -23 -5 -50 -10 -61 -13 -22 -61 -49 -90 -49 -37 0 -81 30 -96
67 -43 103 88 193 167 114z"/>
<path d="M3324 2736 c-29 -29 -34 -41 -34 -79 0 -109 123 -156 201 -77 24 23
29 37 29 75 0 40 -5 52 -34 81 -29 29 -41 34 -81 34 -40 0 -52 -5 -81 -34z
m152 -10 c45 -45 47 -92 5 -138 -25 -28 -36 -33 -76 -33 -40 0 -51 5 -76 33
-63 70 -17 171 80 172 25 0 42 -9 67 -34z"/>
<path d="M7320 2220 c0 -27 -6 -42 -17 -49 -10 -6 -12 -11 -5 -11 6 0 11 -3
10 -7 -2 -5 7 -24 20 -44 27 -45 62 -143 62 -176 0 -34 27 -83 48 -85 51 -4
123 23 151 56 11 12 3 11 -33 -5 -49 -21 -97 -22 -104 -2 -3 10 9 11 45 7 54
-6 41 9 -17 20 -30 6 -39 14 -63 63 -23 45 -26 58 -15 65 42 28 47 28 94 3 31
-17 62 -25 93 -24 l46 0 -65 17 c-36 10 -75 24 -87 33 -21 15 -21 15 28 43 48
27 51 27 84 12 18 -9 46 -16 62 -15 23 1 20 3 -19 16 -27 8 -48 17 -48 22 0 4
24 19 53 34 47 25 36 31 -20 10 -16 -6 -17 -5 -3 13 13 17 12 17 -5 -1 -11
-11 -47 -35 -80 -54 -33 -18 -81 -49 -106 -67 l-46 -34 -6 83 c-6 97 -13 117
-38 117 -15 0 -19 -7 -19 -40z"/>
<path d="M5910 1853 c-15 -7 -60 -13 -112 -13 l-86 0 -11 -31 c-6 -18 -11 -33
-11 -35 0 -1 18 0 40 3 24 4 40 2 40 -5 0 -5 -15 -33 -34 -61 -19 -28 -37 -64
-41 -81 -4 -16 -11 -32 -16 -35 -5 -4 -9 -11 -9 -17 0 -6 29 21 65 60 65 70
152 143 169 142 8 -1 40 82 33 85 -1 1 -13 -4 -27 -12z"/>
<path d="M6353 1732 c25 -29 61 -74 81 -101 l35 -49 -28 -44 c-54 -84 -121
-118 -236 -118 -38 0 -45 -3 -45 -19 0 -11 -4 -22 -9 -25 -4 -3 -6 6 -3 19 4
22 1 25 -26 25 -29 0 -30 -2 -38 -62 -5 -35 -8 -71 -8 -80 1 -30 -14 -9 -21
30 -3 21 -19 63 -34 93 -25 50 -26 57 -12 66 14 9 14 13 2 27 -18 21 -41 21
-41 -1 0 -12 -9 -7 -30 19 -35 42 -78 55 -97 28 -11 -16 -16 -16 -50 -4 -21 7
-51 13 -68 13 -28 0 -26 -2 20 -23 l50 -22 -50 -37 c-28 -20 -77 -47 -110 -59
-33 -13 -52 -24 -43 -26 14 -3 71 17 156 55 24 10 11 -16 -30 -62 l-43 -46
-39 16 c-49 21 -60 11 -12 -11 20 -10 36 -21 36 -25 0 -3 -17 -20 -37 -35 -31
-23 -47 -29 -83 -27 l-45 3 39 -13 39 -12 -58 -48 c-31 -26 -67 -47 -79 -47
-17 0 -18 -2 -6 -10 8 -5 10 -10 4 -10 -6 0 -31 -18 -56 -39 -46 -41 -158
-111 -177 -111 -6 0 -11 6 -11 13 0 6 -9 23 -20 37 -21 27 -27 21 -10 -11 10
-17 7 -19 -26 -19 -29 0 -34 -3 -25 -13 6 -8 7 -17 3 -22 -4 -4 4 -2 17 5 16
8 26 9 34 1 7 -7 3 -13 -14 -19 -13 -6 -53 -22 -89 -36 -35 -15 -70 -24 -78
-21 -8 3 -10 0 -6 -6 4 -8 -1 -9 -16 -4 -17 5 -20 4 -15 -5 5 -8 3 -11 -6 -8
-8 3 -44 -8 -81 -23 -66 -27 -172 -52 -275 -65 -51 -6 -53 -6 -63 22 -6 16
-15 38 -20 49 -9 17 -9 16 -4 -5 4 -14 9 -30 11 -37 3 -8 -6 -9 -33 -3 -48 11
-55 6 -13 -9 62 -21 17 -33 -152 -38 -146 -5 -423 8 -500 24 -21 4 -29 11 -29
27 0 16 -2 18 -9 7 -7 -11 -15 -11 -41 -2 -40 13 -50 14 -30 1 11 -7 3 -10
-30 -11 l-45 -1 55 -12 c34 -7 54 -16 52 -24 -1 -6 7 -12 18 -12 19 0 20 -2 5
-30 -21 -41 -19 -51 5 -15 11 17 20 38 20 48 0 13 6 16 23 12 58 -13 260 -25
436 -25 l193 0 -23 -21 c-22 -18 -22 -19 -3 -10 12 6 40 15 63 20 47 10 46 11
15 -69 l-14 -35 19 23 c11 12 26 22 34 22 46 0 336 87 509 153 57 22 66 23 61
9 -4 -9 16 8 44 38 28 30 54 52 58 48 4 -4 10 -40 13 -80 5 -56 7 -66 12 -43
4 17 5 48 2 70 l-4 40 61 30 c34 16 70 29 82 30 11 1 25 8 30 16 5 8 9 11 9 7
0 -4 25 2 57 13 31 10 69 19 85 19 16 0 46 9 68 20 22 11 52 20 68 20 16 0 46
11 66 25 20 14 41 25 47 25 5 0 6 11 2 28 -5 15 -8 70 -8 122 0 84 4 102 29
154 l29 59 20 -24 c33 -40 76 -142 83 -194 9 -78 8 -78 51 -60 44 19 95 64 89
80 -2 6 5 21 15 33 15 20 25 22 78 19 60 -3 61 -4 89 -48 l28 -44 -65 -1 c-58
-1 -131 -18 -120 -28 2 -2 30 0 62 4 33 3 71 4 87 2 l28 -4 -34 -73 c-19 -41
-34 -77 -34 -82 0 -4 -20 -16 -44 -26 -25 -10 -50 -25 -57 -33 -15 -18 1 -18
37 1 45 23 54 20 43 -17 -5 -18 -9 -62 -9 -98 0 -58 -3 -67 -27 -88 l-28 -23
28 6 c25 5 27 3 28 -27 0 -27 5 -21 23 37 38 116 138 348 162 374 2 2 17 -2
33 -9 36 -14 58 -72 71 -178 7 -64 7 -65 9 -17 0 28 -6 77 -13 110 -8 33 -13
61 -12 62 2 2 37 0 79 -3 l77 -7 1 -71 c1 -54 3 -64 9 -41 4 17 8 48 9 69 1
30 4 37 12 29 7 -7 10 -36 7 -77 -2 -36 -2 -66 0 -66 11 0 42 91 42 125 l0 40
-70 17 c-74 18 -212 82 -267 124 -29 22 -93 127 -93 152 0 5 21 12 48 16 67 9
110 38 133 91 l20 45 25 -30 c25 -29 28 -30 119 -30 82 0 94 -2 99 -18 15 -45
135 -122 192 -122 26 0 6 18 -29 25 -58 13 -108 45 -135 88 l-27 42 -62 -3
c-81 -4 -125 15 -160 69 -15 23 -64 79 -107 123 -43 45 -58 57 -33 28z m-1217
-843 c-15 -22 -29 -28 -246 -106 -116 -42 -329 -103 -357 -103 -7 0 -13 7 -13
15 0 9 17 19 47 27 26 6 42 13 35 16 -7 2 -26 -1 -42 -7 -18 -6 -30 -6 -30 -1
0 12 36 20 80 18 43 -2 296 69 433 122 56 21 103 39 105 40 2 0 -4 -10 -12
-21z"/>
<path d="M4898 1548 c5 -19 1 -20 -61 -16 -58 3 -65 1 -52 -12 11 -10 41 -14
102 -15 61 -1 99 -7 125 -19 58 -28 64 -41 26 -57 -36 -15 -182 -128 -175
-136 9 -9 131 27 207 62 52 23 97 35 145 40 181 16 298 48 394 109 70 44 50
56 -23 12 -30 -18 -88 -43 -128 -55 -40 -13 -81 -27 -90 -32 -26 -14 -88 -11
-148 7 -37 11 -63 27 -88 55 -38 42 -81 59 -149 59 -23 0 -53 4 -66 9 -22 9
-24 7 -19 -11z"/>
<path d="M4175 644 c-161 -29 -474 -52 -483 -37 -5 8 -12 7 -25 -2 -16 -12
-16 -13 5 -19 46 -12 336 -2 542 20 58 6 68 5 62 -7 -4 -8 2 -3 14 11 12 14
31 33 43 42 l22 18 -25 -2 c-14 0 -83 -11 -155 -24z"/>
</g>
</svg>
